<svg width="28" height="28" fill="none" xmlns="http://www.w3.org/2000/svg" type="4"><path d="M14 28c7.732 0 14-6.268 14-14S21.732 0 14 0 0 6.268 0 14s6.268 14 14 14z" fill="#091B3F"></path><path d="M6.544 15.835c0 1.917 2.495 3.47 5.573 3.47 3.077 0 5.572-1.553 5.572-3.47 0-1.917-2.495-3.47-5.572-3.47-3.078 0-5.573 1.553-5.573 3.47z" fill="#091B3F"></path><path d="M12.248 19.023c-2.725.27-5.078-.962-5.255-2.75-.177-1.79 1.89-3.456 4.613-3.726 2.725-.27 5.077.963 5.252 2.75.18 1.79-1.887 3.459-4.61 3.726zm5.448-5.938c-.231-.07-.39-.116-.27-.42.263-.661.29-1.231.005-1.64-.534-.763-1.997-.722-3.673-.02 0 0-.526.23-.39-.186.256-.83.218-1.522-.182-1.924-.908-.91-3.327.034-5.4 2.107-1.551 1.552-2.453 3.198-2.453 4.622 0 2.72 3.49 4.376 6.904 4.376 4.476 0 7.453-2.6 7.453-4.665.002-1.249-1.049-1.957-1.994-2.25zM20.669 8.105a4.353 4.353 0 00-4.147-1.342.63.63 0 00.263 1.23 3.096 3.096 0 013.595 3.983.63.63 0 001.2.389v-.002a4.346 4.346 0 00-.911-4.258z" fill="#fff"></path><path d="M19.009 9.604a2.115 2.115 0 00-2.019-.652.541.541 0 10.225 1.06 1.036 1.036 0 011.204 1.333.543.543 0 001.033.334 2.12 2.12 0 00-.443-2.075zM12.398 15.785c-.095.164-.306.24-.47.173-.164-.066-.213-.25-.12-.409.095-.159.297-.236.458-.173.164.06.223.243.132.41zm-.87 1.113c-.263.42-.829.604-1.253.411-.418-.19-.543-.679-.28-1.09.262-.409.807-.59 1.229-.413.427.184.563.667.304 1.092zm.99-2.975c-1.296-.338-2.761.309-3.324 1.451-.575 1.165-.018 2.46 1.29 2.882 1.358.438 2.957-.234 3.513-1.49.55-1.23-.136-2.495-1.479-2.843z" fill="#fff"></path></svg>