<svg width="24" height="24" fill="none" xmlns="http://www.w3.org/2000/svg" class="ff-ml-8 undefined"><path fill-rule="evenodd" clip-rule="evenodd" d="M3 4h6v2H4a1 1 0 00-1 1v.758c1.206.807 2 2.18 2 3.742a4.493 4.493 0 01-2 3.742V17a1 1 0 001 1h5v2H3a2 2 0 01-2-2v-4.05a2.5 2.5 0 000-4.9V6a2 2 0 012-2zm8 14v2h10a2 2 0 002-2v-4.05a2.5 2.5 0 010-4.9V6a2 2 0 00-2-2H11v2h9a1 1 0 011 1v.758c-1.206.807-2 2.18-2 3.742 0 1.561.794 2.935 2 3.742V17a1 1 0 01-1 1h-9zm0-7H9V8h2v3zm0 5H9v-3h2v3z" fill="#091B3F"></path></svg>