<svg width="28" height="28" fill="none" xmlns="http://www.w3.org/2000/svg" type="3"><path d="M14 28c7.732 0 14-6.268 14-14S21.732 0 14 0 0 6.268 0 14s6.268 14 14 14z" fill="#091B3F"></path><path fill-rule="evenodd" clip-rule="evenodd" d="M20.773 8.362a2.17 2.17 0 011.533 1.533c.36 1.351.36 4.172.36 4.172s0 2.82-.362 4.172a2.17 2.17 0 01-1.532 1.532c-1.351.363-6.772.363-6.772.363s-5.42 0-6.772-.363a2.17 2.17 0 01-1.532-1.532c-.363-1.351-.363-4.172-.363-4.172s0-2.82.363-4.172a2.17 2.17 0 011.532-1.533C8.58 8 14 8 14 8s5.42 0 6.773.362zm-4.002 5.705l-4.505-2.6v5.2l4.505-2.6z" fill="#fff"></path></svg>