<svg width="28" height="28" fill="none" xmlns="http://www.w3.org/2000/svg" type="0"><path d="M14 28c7.732 0 14-6.268 14-14S21.732 0 14 0 0 6.268 0 14s6.268 14 14 14z" fill="#091B3F"></path><path fill-rule="evenodd" clip-rule="evenodd" d="M10.333 14a3.667 3.667 0 117.334 0 3.667 3.667 0 01-7.334 0zM14 11.8a2.2 2.2 0 100 4.4 2.2 2.2 0 000-4.4z" fill="#fff"></path><path d="M18.767 9.967a.733.733 0 11-1.467 0 .733.733 0 011.467 0z" fill="#fff"></path><path fill-rule="evenodd" clip-rule="evenodd" d="M6.667 10.333a3.667 3.667 0 013.666-3.666h7.334a3.667 3.667 0 013.666 3.666v7.334a3.667 3.667 0 01-3.666 3.666h-7.334a3.667 3.667 0 01-3.666-3.666v-7.334zm3.666-2.2a2.2 2.2 0 00-2.2 2.2v7.334a2.2 2.2 0 002.2 2.2h7.334a2.2 2.2 0 002.2-2.2v-7.334a2.2 2.2 0 00-2.2-2.2h-7.334z" fill="#fff"></path></svg>