<svg width="20" height="20" fill="none" xmlns="http://www.w3.org/2000/svg"><path fill-rule="evenodd" clip-rule="evenodd" d="M3.034 12.784c.242.125.497.24.764.347.701.28 1.507.511 2.388.683a13.4 13.4 0 00.683 2.388c.107.266.222.522.347.764a7.525 7.525 0 01-4.182-4.182zM10 19.167A9.167 9.167 0 1110 .833a9.167 9.167 0 010 18.334zm6.966-6.383a7.525 7.525 0 01-4.182 4.182 8.87 8.87 0 00.347-.764 13.4 13.4 0 00.683-2.388 13.4 13.4 0 002.388-.683 8.87 8.87 0 00.764-.347zm0-5.568a7.525 7.525 0 00-4.182-4.182c.125.242.24.498.347.764.28.701.511 1.507.683 2.388a13.4 13.4 0 012.388.683c.266.107.522.222.764.347zm-2.897.73a10.93 10.93 0 011.514.47c.696.28 1.203.59 1.523.892.318.3.394.535.394.692 0 .157-.076.391-.394.692-.32.302-.827.613-1.523.891-.448.18-.956.338-1.514.471.064-.662.098-1.35.098-2.054 0-.704-.034-1.392-.098-2.054zM12.054 5.93a10.922 10.922 0 00-.47-1.514c-.28-.696-.59-1.203-.892-1.523-.3-.318-.535-.394-.692-.394-.157 0-.391.076-.692.394-.302.32-.613.827-.891 1.523-.18.447-.338.956-.471 1.514.661-.064 1.35-.098 2.054-.098.704 0 1.392.034 2.054.098zm-4.413 1.71C8.381 7.55 9.174 7.5 10 7.5c.826 0 1.618.05 2.358.141.092.74.142 1.533.142 2.359 0 .826-.05 1.618-.142 2.359-.74.091-1.532.141-2.358.141-.826 0-1.618-.05-2.359-.141A19.313 19.313 0 017.5 10c0-.826.05-1.618.141-2.359zm-1.71.305a10.93 10.93 0 00-1.514.47c-.696.28-1.203.59-1.523.892-.318.3-.394.535-.394.692 0 .157.076.391.394.692.32.302.827.613 1.523.891.447.18.956.338 1.514.471A21.288 21.288 0 015.833 10c0-.704.034-1.392.098-2.054zm.255-1.76c.172-.88.403-1.687.683-2.388.107-.266.222-.522.347-.764a7.525 7.525 0 00-4.182 4.182c.242-.125.497-.24.764-.347.701-.28 1.507-.511 2.388-.683zm1.76 7.883c.133.558.292 1.066.47 1.514.279.696.59 1.203.892 1.523.3.318.535.394.692.394.157 0 .391-.076.692-.394.302-.32.613-.827.891-1.523.18-.447.338-.956.471-1.514a21.29 21.29 0 01-2.054.098 21.29 21.29 0 01-2.054-.098z" fill="#A5ACBB"></path></svg>